<svg width="116" height="24" viewBox="0 0 116 24" fill="none" xmlns="http://www.w3.org/2000/svg">
<path d="M11.5338 13.4486C10.9612 13.9522 10.2213 14.2254 9.45786 14.2152C8.99492 14.2304 8.53433 14.1435 8.10901 13.9606C7.68369 13.7777 7.30414 13.5034 6.99749 13.1573C6.34923 12.39 6.01436 11.4076 6.05947 10.4054C6.0204 9.40739 6.35781 8.43101 7.00517 7.66879C7.31118 7.32239 7.6908 7.04839 8.11642 6.86672C8.54204 6.68505 9.00293 6.60029 9.46554 6.61861C10.1935 6.61534 10.901 6.85858 11.4723 7.30851C12.0714 7.7788 12.5115 8.42089 12.7332 9.14825H18.5535C18.318 6.97506 17.2592 4.97351 15.5934 3.55237C13.8761 2.11064 11.6866 1.34937 9.44248 1.41368C7.76329 1.38459 6.10346 1.77458 4.614 2.54818C3.21258 3.28767 2.04621 4.40275 1.24637 5.76773C0.418693 7.17309 -0.0117345 8.77573 0.000813287 10.4054C-0.0210611 12.0322 0.398688 13.6347 1.21562 15.0431C2.0215 16.4141 3.19956 17.5301 4.614 18.2626C6.10984 19.0519 7.78103 19.4526 9.47323 19.4278C11.7547 19.496 13.9782 18.705 15.701 17.2124C17.3925 15.7367 18.4451 13.6652 18.6381 11.4326H12.7102C12.5565 12.2173 12.142 12.9275 11.5338 13.4486Z" fill="black"/>
<path d="M28.6015 14.5208C28.2906 14.8466 27.8879 15.0708 27.4466 15.1637C27.0052 15.2566 26.546 15.2139 26.1296 15.0411C25.7131 14.8684 25.359 14.5738 25.114 14.1962C24.8689 13.8187 24.7445 13.3759 24.7572 12.9264C24.7452 12.6294 24.7935 12.333 24.8992 12.0551C25.0049 11.7772 25.1658 11.5234 25.3722 11.3089C25.8077 10.9048 26.3805 10.6802 26.9753 10.6802C27.5702 10.6802 28.143 10.9048 28.5784 11.3089C28.789 11.5215 28.9542 11.7744 29.0639 12.0524C29.1736 12.3304 29.2255 12.6278 29.2166 12.9264C29.2284 13.2206 29.1792 13.514 29.0721 13.7884C28.9649 14.0628 28.8021 14.3121 28.5938 14.5208H28.6015ZM32.4381 8.7563C31.2302 7.65653 29.6363 7.07544 28.0018 7.13887H27.2329L30.4391 1.92627H24.7572L22.0431 6.37231C21.359 7.46341 20.7896 8.62193 20.3439 9.82949C19.989 10.8399 19.8045 11.9019 19.798 12.9724C19.77 13.8476 19.9345 14.7183 20.2798 15.5234C20.6251 16.3286 21.143 17.0486 21.797 17.633C23.241 18.8678 25.1017 19.509 27.0022 19.4268C28.9059 19.5149 30.7712 18.873 32.2151 17.633C32.8682 17.0391 33.3833 16.3103 33.7246 15.4973C34.0659 14.6844 34.2251 13.807 34.1911 12.9264C34.2187 12.1491 34.0792 11.3749 33.7822 10.6557C33.4852 9.9365 33.0374 9.28891 32.4689 8.7563" fill="black"/>
<path d="M40.7494 18.3532C39.5486 17.786 38.5389 16.8832 37.8431 15.7546C37.1566 14.5949 36.8053 13.2683 36.8282 11.9218C36.8043 10.0775 37.2656 8.25915 38.166 6.64791C39.048 5.08015 40.3497 3.78767 41.9258 2.91477C43.6344 1.97169 45.5628 1.49568 47.5154 1.53496C48.8868 1.5143 50.2477 1.77523 51.5135 2.30152C52.5858 2.73157 53.4987 3.48115 54.1277 4.44788L51.8211 6.39494C51.3042 5.71169 50.6239 5.16847 49.8422 4.81495C49.0605 4.46143 48.2024 4.30888 47.3463 4.37123C45.9988 4.33663 44.6689 4.68206 43.5096 5.36775C42.4397 6.0097 41.5673 6.93252 40.9878 8.03538C40.3931 9.18138 40.0895 10.4553 40.1036 11.7455C40.0791 12.3867 40.1928 13.0256 40.4368 13.6193C40.6808 14.213 41.0496 14.7477 41.5183 15.1874C42.6435 16.1031 44.0746 16.5604 45.5241 16.4675C46.439 16.4958 47.3497 16.3323 48.1973 15.9877C49.045 15.643 49.8106 15.1249 50.4448 14.4668L52.2824 16.4905C51.4477 17.4321 50.3906 18.1514 49.2069 18.5832C47.9282 19.0566 46.5728 19.2905 45.2088 19.2731C43.6716 19.308 42.1466 18.9935 40.7494 18.3532Z" fill="black"/>
<path d="M55.588 18.4772C54.6639 18.0256 53.8879 17.321 53.3506 16.4458C52.8155 15.5141 52.5493 14.4528 52.5817 13.3796C52.5626 12.0016 52.9073 10.6427 53.5813 9.4395C54.2385 8.29565 55.1987 7.35419 56.3569 6.71822C57.5925 6.04165 58.9839 5.69817 60.3934 5.72169C61.5739 5.69178 62.7452 5.93583 63.8149 6.43459C64.7322 6.87288 65.5017 7.5681 66.0292 8.43531C66.5693 9.36507 66.8358 10.4277 66.7981 11.5015C66.8184 12.8831 66.4709 14.2454 65.7909 15.4493C65.1374 16.5915 64.1898 17.5389 63.046 18.1936C61.8099 18.8778 60.4154 19.2267 59.0018 19.2054C57.822 19.2366 56.6517 18.9869 55.588 18.4772ZM61.5083 15.9399C62.1981 15.5139 62.7568 14.9065 63.1229 14.1845C63.53 13.3986 63.7335 12.5238 63.7149 11.6395C63.7419 11.1913 63.6737 10.7425 63.5147 10.3225C63.3557 9.90239 63.1095 9.52053 62.7923 9.20186C62.086 8.58324 61.1625 8.26899 60.2243 8.32799C59.4116 8.31826 58.6124 8.53604 57.9177 8.95657C57.2123 9.38554 56.6401 10.0012 56.2646 10.735C55.862 11.5252 55.6588 12.4014 55.6726 13.2876C55.6476 13.7338 55.716 14.1803 55.8736 14.5986C56.0311 15.017 56.2742 15.3981 56.5875 15.7176C56.9456 16.0241 57.3609 16.257 57.8095 16.403C58.2581 16.5491 58.7312 16.6053 59.2017 16.5685C60.0138 16.5734 60.8116 16.356 61.5083 15.9399Z" fill="black"/>
<path d="M80.4843 6.90163C80.9274 7.32125 81.2732 7.83225 81.4976 8.39893C81.7221 8.96561 81.8197 9.5743 81.7837 10.1825C81.7681 10.7103 81.7089 11.2358 81.6069 11.7539L80.146 19.0516H77.0706L78.5084 11.8306C78.5766 11.4977 78.6101 11.1586 78.6083 10.8187C78.6083 9.2243 77.7267 8.42708 75.9634 8.42708C74.9382 8.39156 73.9352 8.72946 73.1417 9.37762C72.3236 10.1299 71.7822 11.1339 71.6039 12.2292L70.22 19.0516H67.1445L69.7664 5.86678H72.7111L72.4113 7.32324C73.6682 6.23035 75.2964 5.65728 76.9629 5.72113C78.2441 5.65746 79.502 6.07916 80.4843 6.90163Z" fill="black"/>
<path d="M84.1456 18.7984C83.3024 18.6027 82.5024 18.2545 81.7852 17.7712L83.0384 15.4102C83.662 15.8402 84.357 16.1568 85.0913 16.3454C85.9197 16.5763 86.776 16.6924 87.6362 16.6903C88.4037 16.7318 89.1701 16.5926 89.8736 16.284C90.1022 16.1842 90.2967 16.0201 90.4333 15.8118C90.5698 15.6035 90.6425 15.36 90.6425 15.1112C90.6423 14.919 90.5813 14.7318 90.4681 14.5762C90.3548 14.4207 90.1952 14.3048 90.012 14.245C89.3651 14.0015 88.699 13.8118 88.0207 13.6777C87.2394 13.5396 86.4686 13.3475 85.7141 13.1028C85.1258 12.8968 84.5976 12.5492 84.1763 12.091C83.7149 11.5562 83.4805 10.8634 83.5228 10.1592C83.5028 9.51578 83.6493 8.87802 83.9482 8.30741C84.2472 7.73679 84.6885 7.25256 85.2297 6.90137C86.5901 6.04505 88.1821 5.62749 89.789 5.70553C90.6798 5.70218 91.5677 5.80512 92.4339 6.01216C93.1882 6.17382 93.9104 6.45874 94.5714 6.85537L93.4027 9.20104C92.835 8.84439 92.2112 8.58527 91.5574 8.43448C90.8831 8.26945 90.1912 8.18708 89.4969 8.18918C88.7325 8.14158 87.9689 8.29489 87.2825 8.63379C87.0591 8.73634 86.8688 8.89899 86.7329 9.10347C86.5971 9.30795 86.5212 9.54615 86.5137 9.79129C86.5099 9.99407 86.5713 10.1927 86.6889 10.3582C86.8065 10.5237 86.9741 10.6474 87.1672 10.7112C87.8271 10.9671 88.5091 11.1621 89.2047 11.2937C89.9857 11.4333 90.7563 11.6254 91.5113 11.8687C92.0986 12.0728 92.6267 12.4176 93.049 12.8729C93.4947 13.3915 93.7232 14.0612 93.6872 14.7433C93.7103 15.393 93.5629 16.0374 93.2595 16.6129C92.9561 17.1883 92.5072 17.6748 91.9572 18.0241C90.569 18.8583 88.963 19.2613 87.3441 19.1816C86.2657 19.1931 85.1905 19.0642 84.1456 18.7984Z" fill="black"/>
<path d="M96.9617 5.86677H100.037L97.4153 19.0286H94.3398L96.9617 5.86677ZM97.8766 3.19148C97.7096 3.03547 97.5769 2.84659 97.4869 2.63678C97.3969 2.42698 97.3516 2.20083 97.3538 1.97265C97.3488 1.71128 97.3981 1.4517 97.4987 1.21027C97.5992 0.968838 97.7489 0.750787 97.9381 0.56985C98.1426 0.376531 98.3844 0.226586 98.6487 0.129084C98.913 0.031583 99.1944 -0.0114473 99.4759 0.00259667C99.9655 -0.0157791 100.443 0.157551 100.806 0.485528C100.972 0.630897 101.105 0.810219 101.195 1.01128C101.285 1.21235 101.331 1.43044 101.329 1.6507C101.338 1.92605 101.288 2.2002 101.184 2.45516C101.079 2.71013 100.922 2.94015 100.721 3.13015C100.518 3.32497 100.276 3.47589 100.012 3.57349C99.7472 3.67108 99.4653 3.71327 99.1837 3.69741C98.9432 3.70289 98.7039 3.66102 98.4796 3.57421C98.2553 3.48739 98.0504 3.35734 97.8766 3.19148Z" fill="black"/>
<path d="M116 5.86692L113.748 17.0357C113.235 19.4529 112.32 21.2134 111.003 22.3173C109.464 23.4924 107.557 24.0846 105.621 23.9884C103.426 24.0945 101.259 23.4599 99.4697 22.1869L101.077 19.8873C101.653 20.3599 102.317 20.7166 103.03 20.9375C103.915 21.216 104.839 21.3531 105.767 21.3437C106.93 21.4224 108.084 21.0914 109.027 20.4085C109.866 19.6698 110.412 18.6552 110.564 17.5493L110.687 16.913C109.487 17.9396 107.947 18.4859 106.366 18.4461C105.303 18.4685 104.249 18.24 103.291 17.7792C102.422 17.362 101.69 16.7049 101.184 15.8858C100.664 15.0122 100.398 14.0116 100.415 12.9959C100.401 11.7049 100.736 10.434 101.384 9.31643C102.016 8.21076 102.942 7.30079 104.06 6.68713C105.237 6.04198 106.561 5.71186 107.904 5.72893C108.868 5.71291 109.824 5.90922 110.703 6.30385C111.499 6.66859 112.157 7.27856 112.579 8.04394L113.025 5.86692H116ZM109.388 15.2496C110.058 14.869 110.613 14.3156 110.995 13.6475C111.385 12.9443 111.584 12.1514 111.572 11.3478C111.592 10.9353 111.521 10.5234 111.362 10.1417C111.204 9.76002 110.963 9.41797 110.657 9.14012C109.931 8.58348 109.026 8.31084 108.112 8.37356C107.291 8.36072 106.481 8.55871 105.759 8.94848C105.082 9.32232 104.523 9.87716 104.144 10.5506C103.753 11.2538 103.552 12.0462 103.56 12.8503C103.543 13.2615 103.618 13.6713 103.779 14.0503C103.94 14.4293 104.183 14.7682 104.49 15.0426C105.213 15.6219 106.126 15.9117 107.051 15.8552C107.869 15.8595 108.675 15.6507 109.388 15.2496Z" fill="black"/>
</svg>
